<?xml version="1.0" standalone="no"?>
<svg xmlns:xlink="http://www.w3.org/1999/xlink" id="wave" style="transform:rotate(0deg); transition: 0.3s" viewBox="0 0 1440 170" version="1.1" xmlns="http://www.w3.org/2000/svg"><defs><linearGradient id="sw-gradient-0" x1="0" x2="0" y1="1" y2="0"><stop stop-color="rgba(81.568, 173.327, 255, 1)" offset="0%"/><stop stop-color="rgba(0.936, 255, 236.924, 1)" offset="100%"/></linearGradient></defs><path style="transform:translate(0, 0px); opacity:1" fill="url(#sw-gradient-0)" d="M0,119L34.3,113.3C68.6,108,137,96,206,90.7C274.3,85,343,85,411,70.8C480,57,549,28,617,31.2C685.7,34,754,68,823,79.3C891.4,91,960,79,1029,87.8C1097.1,96,1166,125,1234,136C1302.9,147,1371,142,1440,121.8C1508.6,102,1577,68,1646,48.2C1714.3,28,1783,23,1851,22.7C1920,23,1989,28,2057,48.2C2125.7,68,2194,102,2263,107.7C2331.4,113,2400,91,2469,87.8C2537.1,85,2606,102,2674,99.2C2742.9,96,2811,74,2880,76.5C2948.6,79,3017,108,3086,102C3154.3,96,3223,57,3291,34C3360,11,3429,6,3497,22.7C3565.7,40,3634,79,3703,82.2C3771.4,85,3840,51,3909,56.7C3977.1,62,4046,108,4114,127.5C4182.9,147,4251,142,4320,133.2C4388.6,125,4457,113,4526,104.8C4594.3,96,4663,91,4731,73.7C4800,57,4869,28,4903,14.2L4937.1,0L4937.1,170L4902.9,170C4868.6,170,4800,170,4731,170C4662.9,170,4594,170,4526,170C4457.1,170,4389,170,4320,170C4251.4,170,4183,170,4114,170C4045.7,170,3977,170,3909,170C3840,170,3771,170,3703,170C3634.3,170,3566,170,3497,170C3428.6,170,3360,170,3291,170C3222.9,170,3154,170,3086,170C3017.1,170,2949,170,2880,170C2811.4,170,2743,170,2674,170C2605.7,170,2537,170,2469,170C2400,170,2331,170,2263,170C2194.3,170,2126,170,2057,170C1988.6,170,1920,170,1851,170C1782.9,170,1714,170,1646,170C1577.1,170,1509,170,1440,170C1371.4,170,1303,170,1234,170C1165.7,170,1097,170,1029,170C960,170,891,170,823,170C754.3,170,686,170,617,170C548.6,170,480,170,411,170C342.9,170,274,170,206,170C137.1,170,69,170,34,170L0,170Z"/></svg>